# xmcd
# 
# Track frame offsets:
#     182
#     20960
#     39370
#     56280
#     76687
#     95317
#     108705
#     124550
#     140177
#     156945
#     176635
#     196082
#     213930
#     233050
#     250505
# 
# Disc length: 3635
# 
# Revision: 15
# Processed by: cddbd v1.5.2PL0 Copyright (c) Steve Scherf et al.
# Submitted via: fre:ac v1.0.17
# 
DISCID=c00e310f
DTITLE=LeAnn Rimes - Sittin' On Top Of The World
DYEAR=1998
DGENRE=Country
TTITLE0=Commitment
TTITLE1=Looking Through Your Eyes
TTITLE2=Undeniable
TTITLE3=Feels Like Home
TTITLE4=Surrender
TTITLE5=These Arms Of Mine
TTITLE6=Nothin' New Under The Moon
TTITLE7=When Am I Gonna Get Over You
TTITLE8=Rock Me
TTITLE9=More Than Anyone Deserves
TTITLE10=Insensitive
TTITLE11=All The Lovin' And Hurtin'
TTITLE12=Sittin' On Top Of The World
TTITLE13=The Heart Never Forgets
TTITLE14=Purple Rain
EXTD=YEAR: 1998
EXTT0=
EXTT1=
EXTT2=
EXTT3=
EXTT4=
EXTT5=
EXTT6=
EXTT7=
EXTT8=
EXTT9=
EXTT10=
EXTT11=
EXTT12=
EXTT13=
EXTT14=
PLAYORDER=
